<?xml version="1.0" standalone="no"?>
<!DOCTYPE svg PUBLIC "-//W3C//DTD SVG 20010904//EN"
 "http://www.w3.org/TR/2001/REC-SVG-20010904/DTD/svg10.dtd">
<svg version="1.0" xmlns="http://www.w3.org/2000/svg"
 width="234.000000pt" height="216.000000pt" viewBox="0 0 234.000000 216.000000"
 preserveAspectRatio="xMidYMid meet">
<metadata>
Created by potrace 1.16, written by Peter Selinger 2001-2019
</metadata>
<g transform="translate(0.000000,216.000000) scale(0.100000,-0.100000)"
fill="#000000" stroke="none">
<path d="M1044 1713 l-131 -398 -425 -5 -426 -5 285 -205 c157 -113 312 -224
343 -247 l58 -42 -129 -392 c-72 -215 -128 -394 -125 -396 3 -3 146 96 318
219 172 124 325 233 340 242 l28 18 332 -238 c183 -130 339 -242 345 -247 10
-7 11 -3 3 19 -115 347 -250 769 -248 775 2 6 388 287 636 463 l44 31 -425 3
-424 2 -132 400 c-72 220 -133 400 -135 400 -1 0 -61 -179 -132 -397z"/>
</g>
</svg>
