<?xml version="1.0" standalone="no"?>
<!DOCTYPE svg PUBLIC "-//W3C//DTD SVG 20010904//EN"
 "http://www.w3.org/TR/2001/REC-SVG-20010904/DTD/svg10.dtd">
<svg version="1.0" xmlns="http://www.w3.org/2000/svg"
 width="229.000000pt" height="220.000000pt" viewBox="0 0 229.000000 220.000000"
 preserveAspectRatio="xMidYMid meet">
<metadata>
Created by potrace 1.16, written by Peter Selinger 2001-2019
</metadata>
<g transform="translate(0.000000,220.000000) scale(0.100000,-0.100000)"
fill="#000000" stroke="none">
<path d="M1484 2186 c-95 -31 -171 -105 -224 -221 -39 -83 -53 -167 -48 -277
6 -141 57 -237 156 -295 143 -84 328 34 409 261 38 109 33 285 -10 379 -57
123 -177 188 -283 153z"/>
<path d="M652 2177 c-181 -66 -239 -352 -120 -594 64 -130 207 -233 305 -219
137 18 226 149 226 331 0 163 -48 291 -147 391 -89 88 -182 120 -264 91z"/>
<path d="M2009 1526 c-145 -39 -266 -183 -304 -361 -19 -88 -19 -117 0 -188
54 -209 251 -254 419 -96 104 96 159 226 159 374 1 62 -4 91 -22 130 -52 117
-146 170 -252 141z"/>
<path d="M146 1476 c-186 -69 -190 -398 -7 -598 88 -96 219 -147 306 -118 200
66 201 418 1 615 -100 99 -208 135 -300 101z"/>
<path d="M1028 1036 c-135 -39 -264 -126 -345 -233 -116 -153 -191 -303 -234
-473 -31 -116 -10 -202 65 -267 83 -73 177 -71 417 11 263 89 332 87 585 -15
112 -45 138 -52 199 -53 134 -1 215 66 223 185 2 32 -1 80 -8 106 -36 146
-199 403 -355 559 -84 85 -114 108 -189 145 -88 43 -91 44 -200 46 -69 1 -129
-3 -158 -11z"/>
</g>
</svg>
