<?xml version="1.0" standalone="no"?>
<!DOCTYPE svg PUBLIC "-//W3C//DTD SVG 20010904//EN"
 "http://www.w3.org/TR/2001/REC-SVG-20010904/DTD/svg10.dtd">
<svg version="1.0" xmlns="http://www.w3.org/2000/svg"
 width="232.000000pt" height="217.000000pt" viewBox="0 0 232.000000 217.000000"
 preserveAspectRatio="xMidYMid meet">
<metadata>
Created by potrace 1.16, written by Peter Selinger 2001-2019
</metadata>
<g transform="translate(0.000000,217.000000) scale(0.100000,-0.100000)"
fill="#000000" stroke="none">
<path d="M579 1964 c-89 -65 -143 -117 -208 -204 -112 -150 -184 -335 -197
-510 l-7 -90 239 0 c131 0 283 3 337 7 l97 6 0 28 c0 57 40 139 96 194 l53 54
-158 278 c-88 153 -166 279 -173 281 -8 2 -44 -18 -79 -44z"/>
<path d="M1519 1788 c-72 -123 -147 -248 -165 -279 -19 -31 -34 -60 -34 -64 0
-4 19 -24 43 -45 49 -44 91 -124 101 -192 l7 -48 127 0 c70 0 219 -3 331 -7
l204 -6 -6 99 c-9 157 -74 344 -167 479 -45 65 -145 170 -210 220 -104 80 -81
96 -231 -157z"/>
<path d="M1073 1329 c-55 -27 -96 -89 -101 -154 -5 -66 27 -129 86 -170 36
-25 53 -30 102 -30 49 0 66 5 102 30 194 135 23 429 -189 324z"/>
<path d="M1255 869 c-60 -22 -145 -23 -200 -4 -57 21 -62 20 -89 -27 -111
-196 -286 -507 -291 -520 -4 -11 12 -23 62 -46 235 -106 491 -120 728 -39 87
30 185 78 185 91 0 13 -333 566 -339 565 -4 -1 -28 -10 -56 -20z"/>
</g>
</svg>
