<?xml version="1.0" standalone="no"?>
<!DOCTYPE svg PUBLIC "-//W3C//DTD SVG 20010904//EN"
 "http://www.w3.org/TR/2001/REC-SVG-20010904/DTD/svg10.dtd">
<svg version="1.0" xmlns="http://www.w3.org/2000/svg"
 width="225.000000pt" height="225.000000pt" viewBox="0 0 225.000000 225.000000"
 preserveAspectRatio="xMidYMid meet">
<metadata>
Created by potrace 1.16, written by Peter Selinger 2001-2019
</metadata>
<g transform="translate(0.000000,225.000000) scale(0.100000,-0.100000)"
fill="#000000" stroke="none">
<path d="M942 2205 c-241 -44 -441 -151 -607 -326 -89 -93 -134 -155 -185
-255 -180 -351 -155 -772 65 -1109 50 -77 223 -250 300 -300 441 -288 1001
-236 1374 128 437 425 441 1125 10 1556 -248 248 -620 367 -957 306z m366 -43
c151 -58 259 -166 319 -319 23 -58 27 -84 27 -178 1 -135 -21 -209 -95 -314
-102 -145 -232 -211 -455 -230 -120 -11 -194 -33 -268 -82 -124 -83 -216 -225
-238 -372 -38 -253 116 -500 365 -583 71 -24 71 -25 22 -19 -487 59 -888 480
-924 970 -28 398 148 763 472 979 239 159 576 223 775 148z m-111 -1452 c64
-39 85 -105 55 -174 -24 -53 -57 -77 -115 -83 -113 -11 -193 119 -131 215 23
35 74 62 119 62 22 0 54 -9 72 -20z"/>
<path d="M1061 1783 c-97 -48 -94 -208 4 -249 100 -41 195 20 195 126 0 107
-103 170 -199 123z"/>
</g>
</svg>
