<?xml version="1.0" standalone="no"?>
<!DOCTYPE svg PUBLIC "-//W3C//DTD SVG 20010904//EN"
 "http://www.w3.org/TR/2001/REC-SVG-20010904/DTD/svg10.dtd">
<svg version="1.0" xmlns="http://www.w3.org/2000/svg"
 width="234.000000pt" height="215.000000pt" viewBox="0 0 234.000000 215.000000"
 preserveAspectRatio="xMidYMid meet">
<metadata>
Created by potrace 1.16, written by Peter Selinger 2001-2019
</metadata>
<g transform="translate(0.000000,215.000000) scale(0.100000,-0.100000)"
fill="#000000" stroke="none">
<path d="M1063 2136 c-28 -7 -75 -24 -105 -39 -55 -27 -151 -114 -173 -157 -7
-14 -18 -74 -24 -135 -53 -482 -204 -746 -595 -1039 -93 -71 -115 -92 -130
-128 -109 -276 56 -577 343 -629 l70 -12 78 35 c473 215 774 219 1245 16 l118
-50 67 12 c37 6 92 23 122 37 74 35 179 141 214 215 38 80 54 190 39 270 -23
124 -34 141 -158 234 -391 293 -542 557 -595 1039 -6 61 -17 121 -24 135 -24
45 -117 128 -179 158 -104 51 -207 63 -313 38z m244 -162 c234 -114 234 -447
1 -564 -52 -26 -72 -30 -138 -30 -66 0 -86 4 -138 30 -259 130 -222 508 58
587 63 18 154 8 217 -23z m-37 -806 c143 -44 238 -203 210 -350 -41 -213 -262
-323 -456 -227 -117 59 -188 203 -164 331 37 195 220 304 410 246z m-672 -428
c71 -36 115 -83 149 -158 34 -72 30 -192 -7 -266 -56 -110 -195 -187 -313
-172 -187 24 -318 209 -273 385 39 151 152 241 307 241 65 0 85 -4 137 -30z
m1407 6 c99 -46 154 -112 181 -217 45 -176 -86 -361 -273 -385 -118 -15 -257
62 -313 172 -37 74 -41 194 -7 266 34 75 78 122 149 158 81 40 186 43 263 6z"/>
</g>
</svg>
